<?xml version="1.0" encoding="UTF-8"?>
<svg version="1.1" xmlns="http://www.w3.org/2000/svg" width="2560" height="1088">
<path d="M0 0 C1.38638672 0.65355469 1.38638672 0.65355469 2.80078125 1.3203125 C39.18665338 19.73971665 60.84051085 63.31859996 75.26660156 99.33959961 C75.88131478 101.00168795 75.88131478 101.00168795 77 102 C78.3629484 102.22684379 79.73542032 102.39690381 81.109375 102.54296875 C123.93181081 107.42404028 175.84087344 117.28954812 205.4375 151.875 C214.91602066 164.47962896 218.47593229 178.42532833 217 194 C213.79904985 216.00043908 201.82668407 235.11765955 188 252 C188.74757568 252.08975098 189.49515137 252.17950195 190.26538086 252.27197266 C207.83408982 254.42499414 224.89794611 257.33605983 242 262 C242.95535645 262.25620117 243.91071289 262.51240234 244.89501953 262.77636719 C283.08937488 273.1746255 317.33625214 291.70316497 346 319 C346.70640625 319.65355469 347.4128125 320.30710937 348.140625 320.98046875 C381.17502724 352.47057982 397.62196093 400.21373033 399 445 C399.09075947 452.00014846 399.06513262 458.99974603 399 466 C399.90492188 465.62230469 400.80984375 465.24460937 401.7421875 464.85546875 C438.55397334 449.8565199 480.56541634 436.02945688 520.59375 435.796875 C521.38414673 435.79117493 522.17454346 435.78547485 522.9888916 435.77960205 C524.65273736 435.77022423 526.31660109 435.76364712 527.98046875 435.75976562 C530.46649554 435.75012986 532.95166874 435.71906611 535.4375 435.6875 C549.40981622 435.59414068 562.98805816 437.08197638 576.25 441.75 C576.9925 442.00604004 577.735 442.26208008 578.5 442.52587891 C589.58550765 446.48942572 599.19852864 452.14615851 608 460 C608.82113281 460.71542969 609.64226563 461.43085938 610.48828125 462.16796875 C622.28776713 473.12332345 629.16145329 486.85743852 634 502 C634.47373047 503.48113281 634.47373047 503.48113281 634.95703125 504.9921875 C638.44517679 516.84844572 639.31125711 528.63941621 639.20581055 540.91503906 C639.18723475 543.15701375 639.18530381 545.39858037 639.18554688 547.640625 C639.14823081 558.55530757 639.14823081 558.55530757 638 562 C638.79535156 562.21785156 639.59070312 562.43570313 640.41015625 562.66015625 C645.09781613 564.40973986 649.16948858 566.84674505 653.4375 569.4375 C654.32058838 569.97173584 655.20367676 570.50597168 656.11352539 571.05639648 C664.08424436 575.9426527 671.66067542 581.21224922 679 587 C679.54140625 587.42571289 680.0828125 587.85142578 680.640625 588.29003906 C702.89846961 605.99637055 724.94319955 628.83984786 730 658 C732.01735804 685.28540591 724.58444308 706.3124199 707 727 C704.75331308 729.43826488 702.4266808 731.74262251 700 734 C699.175 734.825 698.35 735.65 697.5 736.5 C696.675 737.325 695.85 738.15 695 739 C694.5047583 739.51409424 694.0095166 740.02818848 693.49926758 740.55786133 C689.32943883 744.83882037 684.95609654 748.59207156 680.1875 752.1875 C679.44959229 752.74574463 678.71168457 753.30398926 677.95141602 753.87915039 C648.65836714 775.81257219 616.06429336 792.70759368 582.6875 807.5 C581.64408447 807.96301514 580.60066895 808.42603027 579.52563477 808.90307617 C572.38635955 812 572.38635955 812 569 812 C569.01571045 812.85416504 569.0314209 813.70833008 569.04760742 814.58837891 C569.6744282 854.00138854 565.42061898 894.27262734 538 925 C537.27425781 925.81984375 536.54851563 926.6396875 535.80078125 927.484375 C518.09570668 946.33076843 492.66067528 955.90526302 467.08911133 957.140625 C441.00774187 957.92074523 416.72230137 954.18224525 391.54760742 947.60083008 C390.70689697 947.40255615 389.86618652 947.20428223 389 947 C388.13823151 946.65691299 387.27646301 946.31382599 386.38858032 945.96034241 C381.58107862 946.01660607 379.98429225 948.20620617 376.66734314 951.50614929 C375.86470535 952.34023819 375.06206757 953.17432709 374.23510742 954.03369141 C373.37396332 954.90023849 372.51281921 955.76678558 371.62557983 956.65959167 C369.7528043 958.54898994 367.88771631 960.4434445 366.03240013 962.34975052 C363.08385784 965.37890198 360.11017233 968.38252252 357.13264465 971.38314819 C351.87070585 976.69238007 346.63046019 982.02262078 341.39477539 987.35772705 C333.56017651 995.34081259 325.70887264 1003.30737073 317.83748132 1011.25418031 C314.89744859 1014.22396648 311.9689315 1017.20451861 309.04871124 1020.19378072 C295.45294671 1034.09152136 281.52289242 1047.0241887 264.375 1056.4375 C263.05109253 1057.17613281 263.05109253 1057.17613281 261.70043945 1057.9296875 C237.58334293 1071.13901522 209.4512762 1077.59515303 182.38671875 1070.38671875 C169.88136664 1066.64766029 158.90113764 1060.46946629 149 1052 C148.28714844 1051.39929687 147.57429688 1050.79859375 146.83984375 1050.1796875 C128.7638957 1033.57712687 118.57713465 1007.26732206 117.09033203 983.15478516 C115.84266002 953.39274945 126.02448048 927.94297527 145.35595703 905.87792969 C147.53678256 903.38685306 149.70387648 900.88401805 151.87109375 898.38110352 C152.96031617 897.123241 154.05016392 895.86591971 155.140625 894.60913086 C160.2912923 888.67249509 165.40659659 882.70593969 170.51611328 876.73388672 C173.00895524 873.82105954 175.50462766 870.91065939 178 868 C179.0000134 866.83334482 180.00001341 865.66667816 181 864.5 C183 862.16666667 185 859.83333333 187 857.5 C187.7429834 856.63314575 187.7429834 856.63314575 188.50097656 855.7487793 C189.49761406 854.58608966 190.49435827 853.42349149 191.49121094 852.26098633 C194.0435552 849.28422511 196.59383321 846.30573243 199.140625 843.32421875 C204.69625204 836.82416977 210.28123285 830.35792347 216 824 C206.1006208 831.35861843 196.54382414 839.15578952 187.04052734 847.01464844 C182.61006788 850.67796805 178.15275234 854.30165839 173.65234375 857.87890625 C170.08471082 860.73196174 166.5432317 863.616734 163 866.5 C160.94506292 868.17005318 158.88984424 869.83975895 156.83447266 871.50927734 C155.26769264 872.78246855 153.70208454 874.05710168 152.13671875 875.33203125 C149.77382299 877.24269815 147.39189281 879.12581553 145 881 C144.19046875 881.65355469 143.3809375 882.30710937 142.546875 882.98046875 C120.57109377 899.98867069 89.90416766 907.32479608 63 912 C61.19595703 912.34804687 61.19595703 912.34804687 59.35546875 912.703125 C13.5723096 920.60650636 -35.77622016 910.33299085 -74.5625 884.875 C-92.60880781 871.90772776 -108.41118426 854.46396221 -121.69384766 836.73876953 C-123.01496411 834.98007956 -124.35615944 833.23806244 -125.69921875 831.49609375 C-149.94506321 799.67937824 -167.7244999 760.94338853 -162.22875977 720.13916016 C-159.04182871 699.74192164 -149.74577666 681.32834963 -136 666 C-135.1245545 664.99257446 -134.2495704 663.98474782 -133.375 662.9765625 C-127.4598521 656.24998851 -121.08790375 650.48491734 -114 645 C-112.48792969 643.74703125 -112.48792969 643.74703125 -110.9453125 642.46875 C-87.45287889 623.19458106 -52.42768818 614.92607828 -22.515625 617.2734375 C-3.89369332 619.50638406 11.68236495 626.70430504 25 640 C25.77214844 640.76054688 26.54429688 641.52109375 27.33984375 642.3046875 C37.14892518 652.53296044 42.78932862 665.00651055 48 678 C48.38414063 678.95777344 48.76828125 679.91554688 49.1640625 680.90234375 C49.57785156 681.94068359 49.57785156 681.94068359 50 683 C61.95882654 671.36831461 73.21592353 658.21633429 82 644 C80.45872649 640.28731906 78.19156766 638.01884302 75.3125 635.25 C72.32576698 632.37010191 69.49101696 629.4449934 66.79296875 626.296875 C62.44795102 621.27680558 57.72744336 616.6568845 53 612 C47.62667559 606.70687446 42.38546031 601.4026713 37.47949219 595.67138672 C35.66985104 593.62702974 33.67763052 591.85953477 31.625 590.0625 C15.43986834 573.90494096 10.04913057 547.47487227 9.9375 525.390625 C10.35399912 499.11281851 20.13227811 474.93828135 34 453 C33.2795752 452.73300293 32.55915039 452.46600586 31.81689453 452.19091797 C28.97839051 450.99086401 26.53421883 449.588607 23.9296875 447.9453125 C22.9598291 447.3361499 21.9899707 446.7269873 20.99072266 446.09936523 C19.96253418 445.44782471 18.9343457 444.79628418 17.875 444.125 C16.81200684 443.45605713 15.74901367 442.78711426 14.65380859 442.09790039 C11.43305566 440.0696887 8.21595827 438.0358039 5 436 C3.1823039 434.85024108 1.36459642 433.70050015 -0.453125 432.55078125 C-1.69775513 431.76296265 -1.69775513 431.76296265 -2.9675293 430.95922852 C-5.30026115 429.48474138 -7.63626026 428.01554669 -9.97265625 426.546875 C-12.39739067 425.02162975 -14.79504939 423.47321881 -17.18359375 421.890625 C-18.05113281 421.32859375 -18.91867187 420.7665625 -19.8125 420.1875 C-20.49957031 419.72730469 -21.18664063 419.26710938 -21.89453125 418.79296875 C-27.41852253 416.7125045 -33.64341072 420.3291304 -38.7265625 422.5078125 C-40.00013611 423.04353127 -40.00013611 423.04353127 -41.29943848 423.59007263 C-45.03763862 425.16514292 -48.76784772 426.75870129 -52.49798584 428.35275269 C-55.42478788 429.60330432 -58.35262413 430.85138186 -61.28125 432.09765625 C-62.7516423 432.72404243 -62.7516423 432.72404243 -64.2517395 433.36308289 C-70.62208014 436.05546777 -77.04074278 438.54784989 -83.53125 440.93359375 C-85.96050781 441.85213571 -88.38773788 442.77580752 -90.81414795 443.70184326 C-92.33120352 444.26685741 -93.85605222 444.81145398 -95.38848877 445.33331299 C-104.59583119 448.47719011 -109.76030636 451.61729839 -114.1953125 460.51953125 C-115.16772528 462.65257294 -116.10433054 464.79769188 -117.02990723 466.95141602 C-130.73394894 495.89079289 -161.69827046 519.39813289 -188.66015625 535.02734375 C-191.86177278 536.91835702 -194.92742143 538.90952417 -198 541 C-197.60167969 542.19753906 -197.20335937 543.39507813 -196.79296875 544.62890625 C-182.95369039 586.85353927 -182.92995194 632.73753417 -202.75 673.125 C-213.63942842 694.50511121 -228.47561505 711.75523057 -248.5625 724.9375 C-249.61880615 725.63552734 -250.6751123 726.33355469 -251.76342773 727.05273438 C-259.41042866 732.06181412 -267.15188143 736.75826386 -275.22460938 741.04394531 C-276.95326765 741.97483445 -278.65689132 742.9517492 -280.359375 743.9296875 C-328.62309188 771.11897597 -387.19063103 781.62693205 -441.140625 767.80224609 C-457.69480156 763.15769143 -473.16436313 755.575074 -488 747 C-488.32871094 748.20011719 -488.65742187 749.40023437 -488.99609375 750.63671875 C-497.38637029 780.39037112 -510.39599708 809.44236498 -538.00390625 825.77734375 C-555.63878947 835.181082 -577.05872614 835.76995783 -596.13671875 830.25 C-614.47990184 824.45789822 -631.21777247 815.46482385 -646.77050781 804.20288086 C-647.51397461 803.67057861 -648.25744141 803.13827637 -649.0234375 802.58984375 C-649.67231934 802.11409912 -650.32120117 801.63835449 -650.98974609 801.14819336 C-654.22321372 799.30133907 -656.81193034 798.77711275 -660.48168945 799.46557617 C-661.78432739 799.8751355 -661.78432739 799.8751355 -663.11328125 800.29296875 C-664.10175049 800.59195068 -665.09021973 800.89093262 -666.10864258 801.19897461 C-667.694552 801.68829468 -667.694552 801.68829468 -669.3125 802.1875 C-693.55978126 809.2793035 -723.72720678 816.22582476 -747.6875 804.4375 C-749.13164059 803.63686247 -750.56986393 802.82539282 -752 802 C-753.32918992 801.32511011 -754.66127152 800.65576542 -756 800 C-756.35191406 800.49628906 -756.70382812 800.99257813 -757.06640625 801.50390625 C-768.48389437 817.21413142 -784.26696213 825.76491294 -803.375 829.3125 C-804.91602897 829.54591636 -806.45759544 829.77585353 -808 830 C-807.97534668 830.64976807 -807.95069336 831.29953613 -807.92529297 831.96899414 C-807.76924729 839.36411699 -808.66701862 846.19937186 -810.125 853.4375 C-810.46277466 855.13712891 -810.46277466 855.13712891 -810.80737305 856.87109375 C-814.27474427 873.75981856 -819.33323592 889.54612558 -827 905 C-827.33870117 905.68545898 -827.67740234 906.37091797 -828.02636719 907.07714844 C-840.88277332 932.58240238 -861.98490009 953.07023358 -889 963 C-894.25749177 964.65574102 -899.60050083 965.89757756 -905 967 C-905.89332031 967.18433594 -906.78664063 967.36867188 -907.70703125 967.55859375 C-941.21186215 972.04975139 -976.75173803 967.63002181 -1009 958 C-1009.76103027 957.78601563 -1010.52206055 957.57203125 -1011.30615234 957.3515625 C-1026.62183004 952.98757305 -1039.87491627 945.19443868 -1053.45703125 937.10205078 C-1058.97650313 933.81755773 -1064.55527125 930.6357031 -1070.125 927.4375 C-1072.27122934 926.19860245 -1074.41706323 924.95901957 -1076.5625 923.71875 C-1080.89408507 921.2157051 -1085.22744603 918.71578227 -1089.5625 916.21875 C-1104.07011673 907.86072689 -1118.54707192 899.45222369 -1133 891 C-1131.92797507 894.21607478 -1130.48409537 896.72077644 -1128.75390625 899.63671875 C-1127.75254639 901.32643799 -1127.75254639 901.32643799 -1126.73095703 903.05029297 C-1126.00813828 904.26269547 -1125.28531927 905.47509781 -1124.5625 906.6875 C-1123.82651759 907.92846364 -1123.09067834 909.16951219 -1122.35498047 910.41064453 C-1118.92682861 916.1807223 -1115.45909107 921.91506444 -1111.80737305 927.54736328 C-1093.73169045 955.48759865 -1081.89544403 989.88662387 -1088.58935547 1023.31958008 C-1090.94844296 1033.86446445 -1095.33449561 1042.55331698 -1102 1051 C-1102.60714844 1051.77214844 -1103.21429687 1052.54429688 -1103.83984375 1053.33984375 C-1117.03666273 1069.12744928 -1136.71853791 1077.34679646 -1156 1083 C-1156.88171875 1083.27505371 -1156.88171875 1083.27505371 -1157.78125 1083.55566406 C-1173.82779201 1086.76921011 -1195.36343644 1085.26157121 -1211 1081 C-1211.72010254 1080.81195801 -1212.44020508 1080.62391602 -1213.18212891 1080.43017578 C-1242.90886115 1072.51857247 -1265.63179993 1057.23326538 -1285.33203125 1033.88671875 C-1288.25261932 1030.58310274 -1291.44635221 1027.54694706 -1294.58203125 1024.44921875 C-1297.30649918 1021.6895396 -1299.83547376 1018.80819343 -1302.35546875 1015.86328125 C-1304.00398752 1013.99548207 -1305.72303581 1012.24544376 -1307.5 1010.5 C-1309.79326036 1008.24202057 -1311.96428028 1005.94003496 -1314.0625 1003.5 C-1317.59834195 999.39489552 -1321.29333717 995.45003203 -1325 991.5 C-1329.17565744 987.04668987 -1333.31341338 982.58037839 -1337.296875 977.953125 C-1339.49365905 975.43387724 -1341.74689619 972.96897004 -1344 970.5 C-1349.01913521 964.99100925 -1353.94120436 959.41276483 -1358.78125 953.74609375 C-1359.8124583 952.53902687 -1360.84370948 951.33199663 -1361.875 950.125 C-1362.39473389 949.51640137 -1362.91446777 948.90780273 -1363.44995117 948.28076172 C-1366.47905595 944.74357043 -1369.55156303 941.25598946 -1372.6875 937.8125 C-1376.53851005 933.57291957 -1380.14843955 929.17067888 -1383.75 924.71875 C-1385.93501569 922.07852271 -1388.19171391 919.5327028 -1390.5 917 C-1394.34191939 912.77986056 -1397.96115221 908.41972816 -1401.55078125 903.984375 C-1404.31811237 900.61237983 -1407.15165243 897.30350975 -1410 894 C-1415.09880083 888.07773086 -1420.07997852 882.07202651 -1425 876 C-1426.01915052 874.75099132 -1427.03870902 873.50231548 -1428.05859375 872.25390625 C-1433.74134705 865.29054441 -1439.37599773 858.29500943 -1444.91015625 851.21289062 C-1447.70615481 847.63708322 -1450.53006477 844.08580992 -1453.3762207 840.54980469 C-1458.68397022 833.95467302 -1463.88012651 827.28480435 -1469.00341797 820.54541016 C-1472.37945999 816.10715248 -1475.79242572 811.70089791 -1479.23486328 807.31396484 C-1485.59469228 799.20188421 -1491.7172486 790.95295344 -1497.71484375 782.5703125 C-1501.11471673 777.82254879 -1504.58642648 773.12960362 -1508.0625 768.4375 C-1532.96972411 734.7334458 -1557.25326302 699.76809362 -1578.25024414 663.47558594 C-1579.91275687 660.63502869 -1581.5131672 658.17886589 -1584 656 C-1584.556875 656.56847656 -1585.11375 657.13695312 -1585.6875 657.72265625 C-1586.450625 658.49480469 -1587.21375 659.26695312 -1588 660.0625 C-1588.7425 660.81660156 -1589.485 661.57070313 -1590.25 662.34765625 C-1592.39086595 664.41249713 -1594.5525508 666.37682404 -1596.796875 668.32421875 C-1601.05717721 672.02103909 -1605.15909139 675.86765678 -1609.25 679.75 C-1610.7469271 681.16325706 -1612.24432504 682.57601557 -1613.7421875 683.98828125 C-1614.46760742 684.67229004 -1615.19302734 685.35629883 -1615.94042969 686.06103516 C-1646.17620177 714.52624401 -1681.2447776 735.49901885 -1724 735 C-1751.0823909 733.90043074 -1781.91627845 724.19117764 -1800.9375 704 C-1813.86939386 688.82692135 -1822.69753676 671.1517711 -1828 652 C-1828.19722656 651.29931396 -1828.39445312 650.59862793 -1828.59765625 649.87670898 C-1830.67429346 641.25217509 -1830.39417976 632.37858295 -1830.375 623.5625 C-1830.37512085 622.71572693 -1830.3752417 621.86895386 -1830.37536621 620.996521 C-1830.30235526 585.17785948 -1830.30235526 585.17785948 -1817.8125 572.1875 C-1814.56729699 568.71922247 -1811.47955207 565.19965397 -1808.5 561.5 C-1804.88850866 557.03579543 -1801.11339306 552.76997886 -1797.24609375 548.52734375 C-1794.93812402 545.93037607 -1792.74444137 543.26595987 -1790.5625 540.5625 C-1786.69825236 535.78427379 -1782.6185129 531.25773982 -1778.45703125 526.73828125 C-1776.10623867 524.11839954 -1773.88749541 521.43447781 -1771.6875 518.6875 C-1767.05578982 512.9451666 -1762.05176537 507.599357 -1757.0078125 502.22265625 C-1754.1577443 499.18205669 -1751.39511189 496.07651576 -1748.671875 492.921875 C-1746.64241927 490.58894926 -1744.572353 488.29488755 -1742.5 486 C-1739.86819555 483.08511071 -1737.25713074 480.15726789 -1734.6875 477.1875 C-1731.05783975 473.01886468 -1727.30042096 468.97238568 -1723.54370117 464.91870117 C-1720.502878 461.63533221 -1717.48602873 458.33349389 -1714.5 455 C-1710.08120066 450.07164542 -1705.59576206 445.20739168 -1701.09765625 440.3515625 C-1699.07510104 438.16738035 -1697.06237558 435.97485077 -1695.05859375 433.7734375 C-1689.19679117 427.34890188 -1683.20029344 421.10269507 -1676.98291016 415.01977539 C-1674.07559273 412.15739001 -1671.30358998 409.24062913 -1668.640625 406.1484375 C-1664.65372107 401.53513867 -1660.38331968 397.23644211 -1656.0625 392.9375 C-1655.30259766 392.17373047 -1654.54269531 391.40996094 -1653.75976562 390.62304688 C-1649.55151372 386.42198242 -1645.2496441 382.40516551 -1640.74389648 378.52563477 C-1638.5582106 376.61350386 -1636.52163698 374.5838412 -1634.5 372.5 C-1630.48735447 368.45329126 -1626.38452699 364.64012513 -1622 361 C-1621.08605469 360.23558594 -1620.17210937 359.47117187 -1619.23046875 358.68359375 C-1546.18769713 298.87561004 -1445.73682916 260.22070639 -1347.71435547 267.77392578 C-1320.45187588 270.93600399 -1293.6614392 279.0270166 -1269 291 C-1267.94135742 291.51385254 -1267.94135742 291.51385254 -1266.86132812 292.03808594 C-1247.49003028 301.58142964 -1229.36811894 314.03845377 -1213.51171875 328.69921875 C-1211.45303881 330.58500799 -1209.36470475 332.41273579 -1207.25 334.234375 C-1202.75007372 338.16109576 -1198.52291691 342.32950713 -1194.3125 346.5625 C-1193.57966797 347.29146484 -1192.84683594 348.02042969 -1192.09179688 348.77148438 C-1188.17331724 352.6970307 -1184.46778561 356.67039784 -1181 361 C-1181.01047363 360.41959961 -1181.02094727 359.83919922 -1181.03173828 359.24121094 C-1181.6473452 319.23455355 -1179.96785177 272.6306086 -1152.6015625 240.65625 C-1132.38021595 220.00983009 -1102.065114 205.04543483 -1073.00756836 204.61938477 C-1044.18422938 204.67105157 -1020.42824941 214.57971242 -999 234 C-998.2999585 234.62503418 -997.59991699 235.25006836 -996.87866211 235.89404297 C-991.01183884 241.39047825 -987.4800836 246.8313767 -984.1875 254.125 C-983.68742432 255.20338135 -983.18734863 256.2817627 -982.67211914 257.39282227 C-958.1324185 311.27588624 -943.58428919 369.66576588 -931.84375 427.5 C-931.5779715 428.80809128 -931.5779715 428.80809128 -931.30682373 430.14260864 C-930.46487192 434.30049043 -929.63445409 438.46014208 -928.82519531 442.62451172 C-925.59526787 459.04902244 -920.57673864 474.73712177 -915 490.5 C-914.58397522 491.68056473 -914.58397522 491.68056473 -914.1595459 492.88497925 C-901.23083568 539.37337715 -901.23083568 539.37337715 -876 577 C-875.04064839 556.64042693 -877.8536839 537.0408553 -881 517 C-881.1503772 516.03116882 -881.30075439 515.06233765 -881.45568848 514.06414795 C-885.69248422 486.81701699 -890.9092847 460.02399651 -897.67993164 433.29174805 C-913.43619136 371.07603815 -936.01453196 280.25359896 -901.71875 220.5859375 C-886.76638476 198.08942434 -859.86156498 182.96618266 -833.87109375 177.3203125 C-807.97187386 172.68069765 -782.01579513 178.85432461 -760 193 C-751.61596906 198.84850012 -743.71796323 205.30707876 -736 212 C-735.9906543 211.32348389 -735.98130859 210.64696777 -735.97167969 209.94995117 C-735.23192091 166.77197178 -727.8448858 122.49300861 -696 91 C-695.33484375 90.32453125 -694.6696875 89.6490625 -693.984375 88.953125 C-680.88872674 76.54072795 -663.46194235 70.06932003 -646 67 C-644.95328125 66.814375 -643.9065625 66.62875 -642.828125 66.4375 C-613.46332353 63.08152269 -585.03396199 68.68910936 -561.52758789 87.24804688 C-524.6708915 117.13337302 -512.38887689 168.10998835 -507 213 C-506.61736231 216.82787445 -506.34759248 220.65243109 -506.17578125 224.49609375 C-506.01417487 226.79808691 -505.58916967 228.77892152 -505 231 C-504.22398438 230.01902344 -503.44796875 229.03804687 -502.6484375 228.02734375 C-462.4135727 177.5809043 -408.61140144 141.3128007 -343.52734375 133.42578125 C-316.08993168 130.59780237 -288.92063347 137.39832995 -264.15234375 149.3046875 C-261.4423918 150.53099036 -260.16908369 151.00393218 -257.14453125 150.93359375 C-254.79822387 149.91215939 -253.48028266 148.88095496 -251.6875 147.0625 C-241.21329085 137.47260494 -227.8147945 130.89189513 -215 125 C-214.0092749 124.54197998 -214.0092749 124.54197998 -212.99853516 124.07470703 C-190.03365867 113.62699908 -164.19049411 107.98400368 -139 107 C-138.77957031 106.21882813 -138.55914063 105.43765625 -138.33203125 104.6328125 C-136.55532419 99.78724779 -134.16643099 95.3941481 -131.6875 90.875 C-130.89279297 89.42552979 -130.89279297 89.42552979 -130.08203125 87.94677734 C-110.24642123 52.26246835 -81.53271028 9.55526129 -40.39453125 -3.15234375 C-27.64317163 -6.04530658 -11.79582634 -5.88876912 0 0 Z M-1411 504 C-1399.73703805 528.2779402 -1387.88516195 552.2247614 -1374.48632812 575.39892578 C-1372.07088959 579.62594323 -1369.76071705 583.90936045 -1367.4375 588.1875 C-1353.84748247 613.03075675 -1338.63921693 637.08956305 -1322 660 C-1316.05277635 648.79457968 -1313.94069304 634.68469509 -1311.6875 622.3125 C-1311.52846191 621.44189941 -1311.36942383 620.57129883 -1311.20556641 619.67431641 C-1306.4134636 592.0235142 -1307.49605771 561.51646156 -1323.65625 537.54296875 C-1325.3560882 535.27523006 -1327.13060393 533.12959039 -1329 531 C-1329.57105469 530.33484375 -1330.14210938 529.6696875 -1330.73046875 528.984375 C-1345.52576648 512.95876467 -1368.82690366 504.91689036 -1390.23242188 503.83691406 C-1397.15888782 503.67466891 -1404.07621435 503.76693627 -1411 504 Z M-1078 640 C-1086.66891342 651.35002067 -1094.31813527 665.48949686 -1094 680 C-1093.45923828 680.25990723 -1092.91847656 680.51981445 -1092.36132812 680.78759766 C-1078.14230124 687.66171648 -1064.45019097 695.20310066 -1050.88574219 703.28710938 C-1045.94161247 706.22179754 -1040.97018349 709.10972433 -1036 712 C-1037.51780632 708.05172221 -1039.32291111 704.83010748 -1041.6875 701.3125 C-1054.54411239 681.70085513 -1065.40989998 660.89378093 -1076 640 C-1076.66 640 -1077.32 640 -1078 640 Z " fill="#004308" transform="translate(1830,4)"/>
<path d="M0 0 C1.9373639 1.04394053 3.88819144 2.05866369 5.84130859 3.07275391 C20.72541546 10.96032812 34.2832801 21.07202291 46.46630859 32.68212891 C48.57268325 34.68930225 50.72070637 36.56741137 52.95458984 38.42822266 C83.25936896 64.99167101 104.11603547 104.86871014 117.95458984 142.05322266 C118.34565918 143.08447266 118.73672852 144.11572266 119.13964844 145.17822266 C126.95913602 165.98889851 132.54144523 187.26503182 137.46899414 208.91973877 C137.89988751 210.81288579 138.33785853 212.70441879 138.77685547 214.59570312 C146.07372815 246.99484556 143.59323619 284.43507524 133.95458984 316.05322266 C133.72964844 316.82972168 133.50470703 317.6062207 133.27294922 318.40625 C128.12833322 336.0153611 120.36877847 351.95230904 109.95458984 367.05322266 C110.51984375 367.15046631 111.08509766 367.24770996 111.66748047 367.34790039 C119.11234117 368.72335477 126.24002236 370.84129147 133.45458984 373.11572266 C134.08397461 373.3133017 134.71335937 373.51088074 135.36181641 373.71444702 C158.72164434 381.05509109 181.45969384 389.40250011 203.95458984 399.05322266 C204.90092285 399.45541016 205.84725586 399.85759766 206.82226562 400.27197266 C234.10331566 411.91404328 260.37333516 426.7577245 282.81665039 446.25952148 C296.24158491 457.88752782 311.39503086 467.53067857 329.63427734 467.32666016 C336.90216238 466.72812845 342.78371132 463.28408035 348.04443359 458.32666016 C356.80695584 447.89764595 359.82922821 433.69298375 362.43530273 420.64672852 C363.95725762 413.14527828 367.1968236 408.28374883 372.14208984 402.49072266 C376.64499789 400.18923632 381.00946538 400.33738485 385.95458984 401.05322266 C389.20458984 402.67822266 389.20458984 402.67822266 391.95458984 405.05322266 C392.72802734 405.60236328 392.72802734 405.60236328 393.51708984 406.16259766 C406.28133938 415.73578481 419.64204835 438.07806953 422.14208984 453.74072266 C425.25527422 476.69386168 422.58921738 499.72908388 408.95458984 519.05322266 C399.52525359 530.78645216 384.90814048 536.72941846 370.70458984 540.36572266 C369.7597876 540.62325317 369.7597876 540.62325317 368.79589844 540.88598633 C355.40658657 544.04776396 342.06922319 541.76868816 328.89672852 538.85498047 C326.36741043 538.29778592 323.83294351 537.77167716 321.29638672 537.24853516 C319.65993321 536.89877288 318.02384978 536.54727354 316.38818359 536.19384766 C315.64330185 536.03950256 314.8984201 535.88515747 314.13096619 535.72613525 C306.41600289 533.98564015 300.70596407 530.00658672 294.45458984 525.24072266 C272.24409537 508.67044609 248.15740088 494.5776633 223.74023438 481.54443359 C221.01152297 480.08370009 218.29352294 478.60437428 215.57568359 477.12353516 C192.7048777 464.79067539 168.75321804 454.74527289 144.33105469 445.92578125 C141.21913096 444.7831867 138.15349485 443.5442402 135.07958984 442.30322266 C127.97600176 439.55587468 120.65794178 437.64498147 113.30712891 435.68701172 C110.95272812 435.0527211 108.60544685 434.3969573 106.25927734 433.73291016 C105.48543701 433.51441406 104.71159668 433.29591797 103.91430664 433.07080078 C102.46997638 432.66234723 101.02607688 432.25236501 99.58276367 431.84033203 C98.17598731 431.4457056 96.7660076 431.06237318 95.35351562 430.6887207 C93.61653011 430.22857687 91.88641029 429.74225376 90.16113281 429.23999023 C80.59268519 426.68144114 71.51446161 426.76859339 61.70458984 426.99072266 C46.21784551 427.3036656 29.52250038 427.22899318 17.41943359 415.86572266 C10.77905236 407.64935761 9.16076995 398.52651441 9.71923828 388.25585938 C10.1326812 384.38647967 11.10903221 380.71692578 12.20458984 376.99072266 C12.51130615 375.93860596 12.51130615 375.93860596 12.82421875 374.86523438 C14.88846133 368.36357238 17.87497115 363.5013443 23.45458984 359.42822266 C51.64664493 337.52866738 67.45177751 305.07686606 71.95458984 270.05322266 C73.06380154 249.81502345 71.98713677 230.74421828 66.95458984 211.05322266 C66.47873767 209.06018429 66.00478362 207.06669179 65.53271484 205.07275391 C54.28665995 158.70187742 30.67323392 113.89162003 -10.90332031 88.29833984 C-45.13458547 68.40097806 -84.18482877 64.51162131 -122.12060547 74.46899414 C-151.45285112 82.53749685 -178.9492146 97.64264627 -203.04541016 116.05322266 C-200.58560461 123.95183701 -197.41463326 131.4766114 -194.10791016 139.05322266 C-193.82129517 139.71205444 -193.53468018 140.37088623 -193.23937988 141.04968262 C-187.50376518 154.21428397 -181.39795348 167.17463839 -175.04541016 180.05322266 C-174.3884037 181.39260937 -173.73167848 182.73213407 -173.07519531 184.07177734 C-164.73334842 201.07869795 -156.16592169 217.85552847 -146.65771484 234.24755859 C-144.31992403 238.31568277 -142.04800649 242.41961091 -139.77099609 246.52197266 C-128.51834205 266.77797905 -116.41195184 286.46152899 -104.04541016 306.05322266 C-103.41119141 307.0601416 -102.77697266 308.06706055 -102.12353516 309.10449219 C-83.17410109 339.14146351 -62.97643749 368.36558578 -42.04541016 397.05322266 C-41.4941748 397.80925781 -40.94293945 398.56529297 -40.375 399.34423828 C-23.00126909 423.13727963 -5.08436727 446.53997422 13.56494141 469.34765625 C15.4607116 471.67440442 17.33422505 474.01852573 19.20458984 476.36572266 C26.50215616 485.50672431 33.97854112 494.4878002 41.55175781 503.40039062 C43.38283873 505.55779017 45.2080541 507.72011234 47.03344727 509.88232422 C49.33679839 512.60909461 51.6449549 515.33177395 53.95458984 518.05322266 C54.44604492 518.63249512 54.9375 519.21176758 55.44384766 519.80859375 C61.42415198 526.84843109 67.47759744 533.7947795 73.72021484 540.60400391 C76.25354621 543.38092483 78.72554356 546.20609022 81.19287109 549.04150391 C87.85542369 556.64951851 94.71443507 564.0832752 101.55615234 571.52978516 C104.27221552 574.48862493 106.98465235 577.45086947 109.68847656 580.42089844 C112.13858477 583.10451501 114.61864851 585.75055128 117.14990234 588.35791016 C130.60087746 602.31327192 143.51869941 617.50452607 143.29052734 637.69775391 C142.45910257 646.00233389 138.20818781 651.49778354 131.91943359 656.67822266 C127.42143581 659.82592687 124.71139338 660.31764535 119.33154297 659.56103516 C115.51971669 658.74667621 112.18614152 657.27577369 108.70458984 655.55322266 C107.97006592 655.19502441 107.23554199 654.83682617 106.47875977 654.46777344 C90.92414372 646.67609899 79.07321124 635.43852962 67.92333984 622.24072266 C65.05618925 619.05499977 62.0000866 616.06758259 58.95458984 613.05322266 C54.7635102 608.90069291 50.67239244 604.74548831 46.85693359 600.24072266 C44.13201198 597.10734257 41.28909413 594.08735669 38.45458984 591.05322266 C34.45928237 586.77077002 30.50875243 582.46715824 26.68505859 578.02978516 C24.52421777 575.56164643 22.30021283 573.15518256 20.07958984 570.74072266 C16.77122071 567.1179836 13.59446627 563.43629375 10.51708984 559.61572266 C7.29513909 555.62095832 3.94781002 551.80790598 0.45458984 548.05322266 C-3.76138809 543.51718168 -7.73225781 538.83739586 -11.61572266 534.01416016 C-14.4418178 530.57014067 -17.36218811 527.21841021 -20.29541016 523.86572266 C-26.58158075 516.66478039 -32.61616092 509.27740834 -38.60986328 501.83251953 C-40.5758446 499.39577262 -42.55962817 496.97384742 -44.54541016 494.55322266 C-46.04556004 492.72001197 -47.54554472 490.88666608 -49.04541016 489.05322266 C-49.53509277 488.45541992 -50.02477539 487.85761719 -50.52929688 487.24169922 C-57.00026918 479.33644937 -63.38761849 471.38625056 -69.58447266 463.26416016 C-72.20427556 459.83371719 -74.87285048 456.44262864 -77.54541016 453.05322266 C-87.24488637 440.73235757 -96.6882944 428.2303144 -106.08105469 415.67480469 C-108.01150483 413.0984719 -109.9473985 410.52633242 -111.88525391 407.95556641 C-119.52932233 397.80837281 -127.05202443 387.58502798 -134.45703125 377.26220703 C-136.0495114 375.047519 -137.64962698 372.83856582 -139.25244141 370.63134766 C-144.95532701 362.77434546 -150.60185166 354.8811108 -156.17041016 346.92822266 C-156.95822876 345.80311279 -156.95822876 345.80311279 -157.76196289 344.65527344 C-168.10214436 329.84310909 -178.25145798 314.90046598 -188.35791016 299.92822266 C-188.99815125 298.97989563 -189.63839233 298.0315686 -190.29803467 297.05450439 C-198.95285222 284.22558641 -207.490255 271.34904231 -215.68359375 258.21923828 C-217.90934753 254.67910067 -220.19879654 251.18086177 -222.48291016 247.67822266 C-235.02894537 228.36755403 -247.03632609 208.70051694 -259.04541016 189.05322266 C-259.6623877 188.04453125 -260.27936523 187.03583984 -260.91503906 185.99658203 C-262.63088057 183.18555214 -264.33969112 180.37040357 -266.04541016 177.55322266 C-266.55612061 176.71629883 -267.06683105 175.879375 -267.59301758 175.01708984 C-268.05168213 174.25557617 -268.51034668 173.4940625 -268.98291016 172.70947266 C-269.38380859 172.04753906 -269.78470703 171.38560547 -270.19775391 170.70361328 C-271.04541016 169.05322266 -271.04541016 169.05322266 -271.04541016 167.05322266 C-271.70541016 167.05322266 -272.36541016 167.05322266 -273.04541016 167.05322266 C-273.32070557 167.64312988 -273.59600098 168.23303711 -273.87963867 168.84082031 C-274.99367259 170.95503506 -276.17733199 172.61638607 -277.69775391 174.45166016 C-278.22127441 175.08869873 -278.74479492 175.7257373 -279.28417969 176.38208008 C-280.12505127 177.39492065 -280.12505127 177.39492065 -280.98291016 178.42822266 C-282.16749954 179.86881077 -283.35107645 181.31023198 -284.53369141 182.75244141 C-285.12617676 183.4747998 -285.71866211 184.1971582 -286.32910156 184.94140625 C-288.8205533 188.00699053 -291.24671167 191.12150887 -293.67041016 194.24072266 C-297.68154003 199.38623996 -301.81927637 204.40369142 -306.05712891 209.36376953 C-308.9788219 212.78357351 -311.8411593 216.24345423 -314.67041016 219.74072266 C-318.29726297 224.1965704 -322.07203686 228.48553821 -325.93994141 232.73291016 C-327.77458701 234.7547645 -329.57309802 236.80000788 -331.35791016 238.86572266 C-338.62393784 247.19383791 -346.15949841 255.25922078 -354.03759766 263.01025391 C-355.95151188 264.95768025 -357.72143115 266.96812309 -359.48291016 269.05322266 C-362.82954394 272.94608862 -366.52496642 276.31153913 -370.37744141 279.69775391 C-373.12531317 282.12376661 -375.80085824 284.61732051 -378.48291016 287.11572266 C-390.01064459 297.53939238 -399.52454007 303.66951461 -415.35791016 303.55322266 C-416.27217773 303.54750244 -417.18644531 303.54178223 -418.12841797 303.53588867 C-430.09077014 303.2221463 -439.18784828 299.13066899 -448.04541016 291.05322266 C-448.84076172 290.36099609 -449.63611328 289.66876953 -450.45556641 288.95556641 C-457.66311984 282.31055373 -461.12466348 275.98414475 -461.54541016 266.11572266 C-460.95259365 251.19969434 -452.13796998 242.24047032 -442.52197266 231.81103516 C-439.54320132 228.49398064 -436.79938746 225.02942664 -434.04541016 221.52587891 C-431.22454824 218.03836798 -428.2181585 214.73511058 -425.19775391 211.42041016 C-423.28723069 209.31918135 -421.40872567 207.19625067 -419.54541016 205.05322266 C-412.63996381 197.14105976 -405.55058296 189.4087898 -398.35766602 181.75805664 C-395.15326553 178.34222415 -392.0021942 174.8875984 -388.8894043 171.38793945 C-384.37694515 166.36994912 -379.69378971 161.55641611 -374.91650391 156.79150391 C-374.08256607 155.95660934 -373.24862823 155.12171478 -372.38941956 154.26152039 C-370.64194389 152.51336985 -368.89322743 150.7664588 -367.14331055 149.02075195 C-364.48256988 146.36538307 -361.82723086 143.70469648 -359.17236328 141.04345703 C-357.46239745 139.33415184 -355.75212154 137.62515679 -354.04150391 135.91650391 C-353.25795029 135.13092606 -352.47439667 134.34534821 -351.667099 133.53596497 C-347.50705511 129.39337835 -343.27261829 125.40981241 -338.80262756 121.60246277 C-337.02373032 120.03410876 -335.3749854 118.38835964 -333.73291016 116.67822266 C-330.9523846 113.84748445 -328.01388418 111.35035085 -324.92041016 108.86572266 C-320.6297671 105.41557543 -316.55909746 101.81516389 -312.54541016 98.05322266 C-306.91366559 92.78631431 -301.064227 87.87536752 -295.04541016 83.05322266 C-293.35718952 81.658261 -291.66970942 80.26240272 -289.98291016 78.86572266 C-258.13713272 52.85532205 -224.26794818 29.4926072 -187.79541016 10.42822266 C-186.71372559 9.86039062 -185.63204102 9.29255859 -184.51757812 8.70751953 C-178.15365594 5.43895116 -171.7508856 2.66178965 -165.02685547 0.21582031 C-161.92372769 -0.99422673 -159.01660759 -2.44562129 -156.04541016 -3.94677734 C-153.60101695 -4.82015531 -151.14146622 -5.65196343 -148.67041016 -6.44677734 C-144.79927297 -7.69708252 -140.97505115 -8.96002328 -137.18603516 -10.43896484 C-132.60174521 -12.17741129 -127.92459517 -13.39233175 -123.17041016 -14.57177734 C-122.33638672 -14.78833984 -121.50236328 -15.00490234 -120.64306641 -15.22802734 C-115.45224141 -16.52773932 -110.41041067 -17.32162084 -105.07226562 -17.71386719 C-102.97930274 -17.83725551 -102.97930274 -17.83725551 -101.04541016 -18.94677734 C-67.08744544 -24.33605414 -30.03743995 -16.21767772 0 0 Z " fill="#DBDBDB" transform="translate(528.04541015625,362.94677734375)"/>
<path d="M0 0 C30.89825341 -1.06517375 58.51739876 12.07021143 81.08984375 32.65234375 C83.06125301 34.49328041 85.01290421 36.35307533 86.96484375 38.21484375 C87.83109375 39.01664063 88.69734375 39.8184375 89.58984375 40.64453125 C105.0125157 55.34426545 113.27617101 73.65940923 120.96484375 93.21484375 C121.47209532 94.47080612 121.98104189 95.72608612 122.4921875 96.98046875 C128.23234692 111.16390976 133.12564639 125.40148775 136.96484375 140.21484375 C137.24158936 141.2807373 137.24158936 141.2807373 137.52392578 142.36816406 C138.78463311 147.29440937 139.90622494 152.24161193 140.96484375 157.21484375 C141.11727539 157.89434082 141.26970703 158.57383789 141.42675781 159.27392578 C143.87096363 170.4628982 144.27675576 181.61542648 144.33984375 193.02734375 C144.34769897 193.72472656 144.3555542 194.42210937 144.36364746 195.140625 C144.58884047 220.82169618 136.37343743 245.16226821 118.96484375 264.21484375 C113.29532453 269.96407502 107.13569302 274.4978439 99.96484375 278.21484375 C98.97871094 278.73175781 97.99257812 279.24867188 96.9765625 279.78125 C91.54977527 282.03611352 85.69904135 282.30249981 79.90234375 282.83984375 C79.24916168 282.9017691 78.59597961 282.96369446 77.92300415 283.02749634 C14.33973397 288.96302508 -51.33673761 285.8657481 -115.03515625 283.21484375 C-115.67096865 312.86559549 -115.67096865 312.86559549 -112.03515625 342.21484375 C-111.71830503 343.88793663 -111.40190814 345.5611156 -111.0859375 347.234375 C-106.65016675 370.00894632 -98.73183929 400.71831744 -79.03515625 415.21484375 C-66.74811317 422.60262282 -53.99009746 425.71598046 -39.87109375 422.33984375 C-32.12381129 420.14149737 -26.59100107 416.9662359 -21.03515625 411.21484375 C-19.3777076 409.70466437 -17.71049078 408.20515646 -16.03515625 406.71484375 C-15.18566406 405.94785156 -14.33617187 405.18085937 -13.4609375 404.390625 C-11.39812837 402.54040812 -9.31803255 400.71539566 -7.22265625 398.90234375 C-4.20562098 396.28148483 -1.27215415 393.58316965 1.64746094 390.85522461 C14.53798338 378.83683936 26.48210336 368.04439425 44.96484375 368.02734375 C45.66351562 368.01509766 46.3621875 368.00285156 47.08203125 367.99023438 C51.15430467 367.97870907 54.40326676 368.17429173 57.96484375 370.21484375 C66.51447309 379.61765855 70.34002488 390.45703957 70.171875 402.9765625 C68.68222464 426.27694268 52.00722001 443.95236031 35.35546875 458.63378906 C1.47426693 487.27452722 -39.40169966 497.95105895 -83.03710938 495.01269531 C-101.70722365 493.15966899 -115.6149609 484.14124837 -127.78515625 470.05859375 C-136.06440398 459.59454454 -142.46165236 448.30782742 -148.03515625 436.21484375 C-148.55722656 435.08691406 -149.07929687 433.95898438 -149.6171875 432.796875 C-151.17111886 429.29950442 -152.63304694 425.77501348 -154.03515625 422.21484375 C-154.30682617 421.53099609 -154.57849609 420.84714844 -154.85839844 420.14257812 C-164.23790475 396.12163036 -168.69504527 370.62479408 -172.4362793 345.21508789 C-172.86583065 342.30364349 -173.32688327 339.3985636 -173.80004883 336.49389648 C-175.61895938 325.17024796 -176.73005442 313.98247195 -177.22265625 302.52734375 C-177.26185181 301.67853638 -177.30104736 300.829729 -177.34143066 299.9552002 C-178.02976335 284.79584101 -178.24506863 269.63851847 -178.28515625 254.46484375 C-178.29042328 253.45338287 -178.29569031 252.441922 -178.30111694 251.39981079 C-178.37377038 233.43208461 -177.19732102 215.71021549 -174.28515625 197.96484375 C-174.11959229 196.94253662 -173.95402832 195.92022949 -173.78344727 194.86694336 C-170.7708214 177.03986227 -166.62799962 159.08208686 -160.03515625 142.21484375 C-159.76832031 141.51343262 -159.50148438 140.81202148 -159.2265625 140.08935547 C-148.65921796 112.38659913 -135.55722677 86.46167582 -117.03515625 63.21484375 C-116.58849609 62.64185547 -116.14183594 62.06886719 -115.68164062 61.47851562 C-92.21848096 31.48043149 -52.8675793 7.05041569 -15.23046875 0.55859375 C-10.1613638 0.12097318 -5.08173047 0.22683776 0 0 Z " fill="#DDDDDD" transform="translate(1502.03515625,209.78515625)"/>
<path d="M0 0 C1.08925781 0.27199219 2.17851562 0.54398438 3.30078125 0.82421875 C13.14852679 3.64698368 22.90128014 7.39717 29 16 C32.7357196 23.47143921 33.57751982 31.65015018 31.19140625 39.7421875 C25.21610827 53.01603284 12.69618491 60.66875419 -0.3984375 65.7734375 C-9.87283923 69.26955579 -19.55628335 72.06236178 -29.25 74.875 C-85.81774932 91.34474637 -144.21343847 121.55799365 -185.49609375 164.49609375 C-187.08809411 166.08809411 -188.76302447 167.50592676 -190.5 168.9375 C-193.72575686 171.65317059 -196.43962835 174.63893085 -199.16796875 177.84765625 C-201.78750695 180.92519473 -204.50088853 183.91698804 -207.203125 186.921875 C-207.79609375 187.60765625 -208.3890625 188.2934375 -209 189 C-209.59296875 189.66515625 -210.1859375 190.3303125 -210.796875 191.015625 C-212.21761305 192.89242217 -212.21761305 192.89242217 -211.74806213 194.91944885 C-210.90608131 197.26121178 -209.94528785 198.47721787 -208.23413086 200.27319336 C-207.6506337 200.89158585 -207.06713654 201.50997833 -206.46595764 202.14710999 C-205.82621506 202.80883713 -205.18647247 203.47056427 -204.52734375 204.15234375 C-203.86024887 204.85246078 -203.19315399 205.55257782 -202.50584412 206.27391052 C-195.36659908 213.73243526 -188.09238915 221.0590298 -180.78149414 228.34887695 C-178.5360842 230.58885186 -176.29617161 232.83422696 -174.05664062 235.08007812 C-172.60188354 236.53417542 -171.14681682 237.98796303 -169.69140625 239.44140625 C-168.70836266 240.42748619 -168.70836266 240.42748619 -167.70545959 241.43348694 C-163.29831509 245.81863946 -158.72440427 249.95916222 -154 254 C-150.22525282 252.20307885 -147.12046592 249.85794715 -143.875 247.25 C-142.62015604 246.25344726 -141.36492879 245.25737703 -140.109375 244.26171875 C-139.11067383 243.46773682 -139.11067383 243.46773682 -138.09179688 242.65771484 C-114.37785485 223.86480328 -90.07920317 205.92964438 -65 189 C-64.26313965 188.50145508 -63.5262793 188.00291016 -62.76708984 187.48925781 C-29.38588929 164.93780769 5.03208658 144.00716719 40.6875 125.25 C41.63794189 124.74815186 42.58838379 124.24630371 43.56762695 123.72924805 C54.92995212 117.82001523 67.36394517 115.14852173 80.00390625 119.0625 C91.89844157 123.86731778 102.32630231 132.05471392 108.875 143.1875 C112.10935525 151.27338812 112.43683114 160.52400569 109 168.5625 C102.57030806 181.11398313 94.42148656 190.82396232 81.125 195.875 C58.65483102 204.98051827 37.03642118 216.59391056 15.88378906 228.39550781 C12.60339176 230.22066621 9.31410842 232.02940038 6.0234375 233.8359375 C-16.7061593 246.32118245 -39.26686883 259.0880186 -61.70410156 272.09179688 C-65.06841149 274.03960772 -68.43645372 275.98085892 -71.8046875 277.921875 C-73.97412813 279.17678984 -76.14340523 280.43198744 -78.3125 281.6875 C-79.31466553 282.26363037 -80.31683105 282.83976074 -81.34936523 283.43334961 C-85.82668028 286.03264428 -90.0887442 288.57243894 -94 292 C-93.26849731 292.38369751 -93.26849731 292.38369751 -92.5222168 292.77514648 C-82.52209532 298.06198494 -73.36698358 303.31027647 -65 311 C-64.28714844 311.60972656 -63.57429688 312.21945312 -62.83984375 312.84765625 C-53.92733257 320.93588894 -47.75373225 332.21861106 -46.828125 344.23046875 C-46.55292717 352.22496569 -47.71487661 359.76626472 -53 366 C-61.06313457 373.95841853 -70.64773332 377.13303175 -81.875 377.4375 C-109.93887712 376.41643281 -134.73325056 361.29564345 -156 344 C-157.32800251 342.99293143 -158.65911516 341.98985131 -160 341 C-163.35043397 342.45188594 -165.50486196 344.2819659 -168.046875 346.88671875 C-168.81 347.66080078 -169.573125 348.43488281 -170.359375 349.23242188 C-171.54273437 350.44768555 -171.54273437 350.44768555 -172.75 351.6875 C-181.53649966 360.6716959 -181.53649966 360.6716959 -185.796875 364.30078125 C-191.6879678 369.35561982 -197.0487877 374.98123063 -202.5 380.5 C-214.6300828 392.78041135 -214.6300828 392.78041135 -220.90820312 398.13085938 C-225.82006921 402.51989377 -230.37349211 407.31351886 -235 412 C-246.56993718 423.71991784 -246.56993718 423.71991784 -250.96875 427.46875 C-256.81128154 432.45421597 -262.10647314 438.03963097 -267.5 443.5 C-279.85526874 456.00838804 -279.85526874 456.00838804 -286.18945312 461.40332031 C-290.13750867 464.88501978 -293.72436989 468.76339201 -297.35546875 472.5703125 C-303.00943843 478.35466723 -308.93517109 482.57330439 -316.625 485.25 C-317.50414063 485.56453125 -318.38328125 485.8790625 -319.2890625 486.203125 C-327.60302502 488.64699871 -340.5377733 490.70227807 -348.58984375 486.71875 C-350.44985878 484.9279259 -351.69783152 483.22435994 -353 481 C-353.42410156 480.42121094 -353.84820313 479.84242188 -354.28515625 479.24609375 C-358.19073131 473.1163268 -357.8593408 465.9887982 -357 459 C-354.1515363 448.30185293 -347.80338543 439.28700758 -339.56982422 432.04199219 C-333.61983613 426.7182728 -327.96898353 421.11434212 -322.33203125 415.46484375 C-321.24222581 414.37571434 -320.15227218 413.28673321 -319.06217957 412.19789124 C-316.79576916 409.9329425 -314.53114468 407.66622775 -312.26782227 405.39819336 C-309.38678041 402.51144142 -306.50125187 399.62922259 -303.61436939 396.74831295 C-301.36902405 394.50660317 -299.12609287 392.26249 -296.88385582 390.01767159 C-295.82139856 388.95455404 -294.7582169 387.89215987 -293.69425392 386.83054924 C-288.43721114 381.58258992 -283.24600814 376.31960585 -278.43412781 370.65431213 C-276.0981631 367.9597024 -273.5520272 365.48777208 -271 363 C-267.05509103 359.10882141 -263.2999361 355.14810009 -259.70703125 350.92578125 C-257.01021987 347.88338305 -254.08465604 345.07674191 -251.19140625 342.22265625 C-248.57898932 339.5729856 -246.16697379 336.78827197 -243.74609375 333.96484375 C-241.90384325 331.89179676 -239.97598338 329.94564198 -238 328 C-234.79900711 324.84201469 -231.80717498 321.57135842 -228.875 318.1640625 C-225.31333034 314.0533021 -221.64665814 310.03530424 -218 306 C-222.43049707 300.7357702 -227.06084054 295.72416408 -231.8125 290.75 C-237.84766308 284.37992979 -243.53628804 277.86866646 -249 271 C-250.6599245 268.97665383 -252.32807586 266.96028984 -253.99755859 264.94482422 C-255.81431855 262.74780081 -257.62049756 260.54239535 -259.42578125 258.3359375 C-261.70121925 255.55957042 -264.0089381 252.81801354 -266.35546875 250.1015625 C-278.48278375 235.86136516 -283.40594269 220.96426822 -283.3125 202.25 C-283.30512817 200.51520386 -283.30512817 200.51520386 -283.29760742 198.74536133 C-283.18733403 190.73046524 -282.65213076 183.61555621 -280 176 C-279.64808594 174.94425781 -279.29617187 173.88851562 -278.93359375 172.80078125 C-268.56774928 143.89273314 -245.10029563 118.70435474 -222 99 C-221.11183594 98.22269531 -220.22367188 97.44539062 -219.30859375 96.64453125 C-197.20240681 77.42934918 -172.44309588 60.49644023 -147 46 C-146.15453613 45.51176758 -145.30907227 45.02353516 -144.43798828 44.52050781 C-131.89269101 37.28706668 -119.18513891 30.44186712 -106.25 23.9375 C-105.63091766 23.62407654 -105.01183533 23.31065308 -104.37399292 22.98773193 C-97.02190445 19.27515429 -89.62047779 15.99059818 -81.89453125 13.12329102 C-78.74505807 11.90106378 -75.79551508 10.45971553 -72.80273438 8.90234375 C-51.42180537 -1.79970306 -23.17131656 -6.25742588 0 0 Z " fill="#DBDBDB" transform="translate(2372,514)"/>
<path d="M0 0 C7.91783642 5.23078786 11.54374132 12.3021758 13.90063477 21.24902344 C15.18942205 27.72263437 15.51431086 34.28401474 15.92623901 40.86236572 C16.2073059 45.32661593 16.528583 49.78805078 16.84375 54.25 C16.9059523 55.14399506 16.9681546 56.03799011 17.03224182 56.95907593 C18.64688051 79.98668265 21.35481676 102.85874166 24.58984375 125.7109375 C24.82882483 127.40575484 25.06775458 129.10057942 25.30664062 130.79541016 C27.04357428 143.10406581 28.79809451 155.41013732 30.58984375 167.7109375 C30.71983765 168.60757111 30.84983154 169.50420471 30.98376465 170.42800903 C31.37665632 173.13086278 31.77368284 175.83307882 32.171875 178.53515625 C32.28999039 179.35017609 32.40810577 180.16519592 32.52980042 181.00491333 C33.38330415 186.75113816 34.58034943 192.32775431 35.97265625 197.96875 C36.67295242 201.08019247 36.98833087 204.12692278 37.26904297 207.29736328 C37.62170148 209.95062204 38.23566101 212.43518669 38.91796875 215.0234375 C40.61223807 221.6638639 42.02083343 228.35340438 43.40753174 235.06298828 C47.73792035 255.95254327 52.29935898 276.82394782 58.55078125 297.234375 C59.46022133 300.27723841 60.24212855 303.30730624 60.96484375 306.3984375 C63.04182663 314.93843415 65.88792212 323.25759232 68.59423828 331.61376953 C69.6273996 334.82776768 70.64008963 338.04766726 71.6484375 341.26953125 C71.99302002 342.36434814 72.33760254 343.45916504 72.69262695 344.5871582 C73.35262005 346.68472881 74.00897263 348.78344997 74.66088867 350.88354492 C76.57438338 356.93022811 78.78587411 362.75726132 81.2734375 368.59033203 C83.64325739 374.2081061 85.81688862 379.90401633 88.02734375 385.5859375 C90.89085421 392.94419537 93.77090663 400.26686978 97.02734375 407.4609375 C104.81606236 425.22191721 108.56005179 448.44974647 101.796875 467.06640625 C99.41019513 472.29547509 96.54862133 476.6059939 91.58984375 479.7109375 C83.25166688 480.9701097 75.140445 476.40990213 68.58984375 471.7109375 C49.8429967 456.72588621 41.78392473 434.05954468 35.58984375 411.7109375 C35.41026123 412.25548584 35.23067871 412.80003418 35.0456543 413.36108398 C27.35860549 436.56113802 18.55947238 457.85628472 2.58984375 476.7109375 C1.8628125 477.59652344 1.13578125 478.48210937 0.38671875 479.39453125 C-14.60642908 496.89481142 -36.51017432 508.69659707 -59.32421875 512.15234375 C-87.8904799 513.49003876 -116.42010565 494.28138298 -136.6628418 476.05810547 C-158.61262576 456.0644318 -173.79080089 430.39611997 -187.14550781 404.17529297 C-188.67003169 401.20453157 -190.24116397 398.26047975 -191.81640625 395.31640625 C-220.67462983 341.20723704 -244.83064797 284.89675121 -266.24633789 227.46990967 C-267.76504783 223.40361763 -269.33187957 219.35941889 -270.921875 215.3203125 C-274.01261001 207.3068392 -276.60539131 199.13810398 -279.22265625 190.9609375 C-279.75770356 189.29534901 -280.29294375 187.62982246 -280.82836914 185.96435547 C-281.62776755 183.47726753 -282.42676532 180.9900569 -283.2240448 178.50228882 C-284.62855534 174.1231838 -286.05305384 169.75207672 -287.51171875 165.390625 C-292.16773667 151.37627906 -296.15065639 137.18812395 -300.09765625 122.9609375 C-300.37415009 121.96741272 -300.65064392 120.97388794 -300.93551636 119.95025635 C-303.85031112 109.45230947 -306.67466002 98.9335878 -309.26953125 88.3515625 C-309.47901901 87.5192511 -309.68850677 86.6869397 -309.90434265 85.82940674 C-313.69273636 70.03373467 -311.91659154 55.67735561 -304.16015625 41.3359375 C-299.5235202 33.84218457 -293.04538242 27.32158727 -284.41015625 24.7109375 C-274.20538002 23.18100969 -264.61690138 26.34802022 -256.09765625 31.8984375 C-247.26327903 38.52067532 -240.96681518 47.99766231 -238.50390625 58.73828125 C-238.17069564 60.15351197 -237.83735467 61.56871201 -237.50390625 62.98388672 C-237.32923828 63.74272156 -237.15457031 64.5015564 -236.97460938 65.28338623 C-235.9410306 69.72851259 -234.84060457 74.15746677 -233.75390625 78.58984375 C-233.28343915 80.52008118 -232.81339205 82.45042103 -232.34375 84.38085938 C-232.10769043 85.35079834 -231.87163086 86.3207373 -231.62841797 87.32006836 C-231.14916571 89.29067155 -230.67032525 91.26137493 -230.19189453 93.23217773 C-225.91594801 110.83944559 -221.29463799 128.29868618 -216.234375 145.69921875 C-214.61979928 151.29765179 -213.11461877 156.86470854 -211.90722656 162.56396484 C-210.94527682 166.71886957 -209.62106096 170.76802596 -208.34765625 174.8359375 C-205.59124813 183.77034833 -202.91473714 192.72513806 -200.30593872 201.70355225 C-199.74095749 203.64795319 -199.17409894 205.59180833 -198.60717773 207.53564453 C-196.79779582 213.7761575 -195.05599153 220.02472344 -193.41796875 226.3125 C-191.55814642 233.34531079 -189.33443772 240.20794435 -186.97265625 247.0859375 C-184.42805879 254.59058872 -181.93405527 262.08299047 -179.78515625 269.7109375 C-177.45539723 277.87691025 -174.54687607 285.77769963 -171.53662109 293.71435547 C-170.47727451 296.53239188 -169.43601077 299.35661838 -168.40078735 302.18359375 C-155.48824914 337.43746252 -141.51391199 375.09367437 -116.41015625 403.7109375 C-115.68183594 404.55914063 -114.95351563 405.40734375 -114.203125 406.28125 C-102.54481893 419.58800479 -86.88102236 432.62030203 -68.41796875 433.921875 C-57.33134625 433.1443716 -47.94812963 426.24265813 -39.41015625 419.7109375 C-38.68183594 419.16824219 -37.95351563 418.62554688 -37.203125 418.06640625 C-25.43419123 408.59852674 -17.5328595 394.77708849 -10.41015625 381.7109375 C-9.58644531 380.24527344 -9.58644531 380.24527344 -8.74609375 378.75 C-5.14578089 371.73886444 -4.36458066 364.78248761 -3.63722229 357.00349426 C-3.42093901 354.81980492 -3.17100951 352.64340456 -2.90649414 350.46508789 C-1.482146 338.50762932 -1.00888531 326.68543559 -1.03515625 314.6484375 C-1.03570007 313.6992746 -1.0362439 312.75011169 -1.0368042 311.77218628 C-1.07004063 299.03080269 -1.53724121 286.43015172 -3.03515625 273.7734375 C-3.17518066 272.5661499 -3.31520508 271.3588623 -3.45947266 270.11499023 C-6.75518687 245.34127404 -13.16630303 221.04460712 -19.41125488 196.8850708 C-20.90586109 191.09692472 -22.38832128 185.30564412 -23.87181854 179.51464272 C-24.23262167 178.10654317 -24.59368939 176.6985114 -24.95502472 175.29054832 C-27.25517901 166.32523054 -29.48654991 157.3480022 -31.59934998 148.33662415 C-33.2093072 141.48918375 -34.91282859 134.66724009 -36.63671875 127.84765625 C-36.91444626 126.74704865 -37.19217377 125.64644104 -37.47831726 124.51248169 C-38.61730309 120.00128668 -39.75742653 115.49039897 -40.90429688 110.98120117 C-44.12974119 98.28784004 -47.32076858 85.64877258 -49.41015625 72.7109375 C-49.59497559 71.57833496 -49.77979492 70.44573242 -49.97021484 69.27880859 C-50.44368234 65.43904497 -50.5895532 61.65549541 -50.61328125 57.79296875 C-50.61898132 57.05447189 -50.6246814 56.31597504 -50.6305542 55.55509949 C-50.6399465 53.99955654 -50.64651503 52.44399421 -50.65039062 50.88842773 C-50.66005897 48.54699662 -50.69112129 46.20645887 -50.72265625 43.86523438 C-50.82187355 29.95626064 -49.1988935 17.41986311 -39.55859375 6.640625 C-29.7582228 -2.69120232 -12.54133838 -4.7407121 0 0 Z " fill="#DEDEDE" transform="translate(1034.41015625,259.2890625)"/>
<path d="M0 0 C0.63421875 0.32693848 1.2684375 0.65387695 1.921875 0.99072266 C12.76480662 6.61229178 22.45557596 13.40048769 32 21 C32.54132568 21.41789795 33.08265137 21.8357959 33.64038086 22.26635742 C49.10612947 34.52843451 60.31703581 60.20953649 65.38671875 78.83984375 C65.99390204 80.97852121 66.74210222 82.99736077 67.5625 85.0625 C75.63790264 106.31355959 68.56516118 130.20519452 60.02539062 150.29248047 C41.69803138 190.98031544 3.19687208 221.31416089 -37.46484375 238.01220703 C-39.299913 238.70197054 -41.14841754 239.35587638 -43 240 C-41.58776283 244.41828486 -39.91744534 248.66070684 -38.125 252.9375 C-30.31027042 272.15228839 -25.33367251 293.84835354 -32 314 C-32.38461961 315.28070868 -32.76729296 316.56200283 -33.1484375 317.84375 C-46.78016062 362.40347142 -75.65046869 403.86195264 -107.05078125 437.85546875 C-108.25319795 439.17836809 -109.42516687 440.53065131 -110.54296875 441.92578125 C-134.43029669 471.58536838 -180.35641904 492.53052493 -217.46386719 497.31787109 C-228.10313565 498.22309818 -237.89466207 496.09258187 -248 493 C-248.67546875 492.80696289 -249.3509375 492.61392578 -250.046875 492.41503906 C-271.33686733 486.32217941 -291.23862542 475.60501807 -310 464 C-311.06395996 463.34620361 -311.06395996 463.34620361 -312.14941406 462.67919922 C-329.21380516 452.0920052 -339.87804824 438.05649332 -344.60742188 418.17333984 C-348.3623487 397.38580342 -341.21136075 378.73439566 -329.63208008 361.83251953 C-323.83015129 353.84286162 -316.51968843 348.81276732 -308 344 C-306.31970703 343.03513672 -306.31970703 343.03513672 -304.60546875 342.05078125 C-297.08745997 338.15087101 -290.43778066 336.68927679 -282 338 C-276.64135222 340.10518306 -274.24352855 343.86616982 -271.9140625 348.9609375 C-269.25227361 357.81081681 -270.62692363 366.6222362 -273.3203125 375.25390625 C-275.94468359 385.85696878 -273.9253362 396.49943967 -268.375 405.75 C-260.49096246 416.72581697 -245.94789495 421.21400542 -233.1953125 423.4921875 C-220.40968775 425.23596186 -208.02233473 424.97274186 -196 420 C-195.36610352 419.74798828 -194.73220703 419.49597656 -194.07910156 419.23632812 C-180.95958118 413.99856843 -169.80515181 407.14676617 -159 398 C-158.1646875 397.30003906 -157.329375 396.60007812 -156.46875 395.87890625 C-150.21592698 390.46558262 -145.02351875 384.55797538 -140 378 C-139.33226562 377.13632812 -138.66453125 376.27265625 -137.9765625 375.3828125 C-123.851476 356.56797397 -113.85761558 335.38616295 -106.3125 313.1875 C-106.09199982 312.55206268 -105.87149963 311.91662537 -105.64431763 311.26193237 C-99.44087261 293.23241249 -103.2379659 278.60226906 -111.08203125 261.79296875 C-113.84867985 256.15320738 -117.26952295 251.04412752 -121 246 C-121.58007812 245.19691406 -122.16015625 244.39382813 -122.7578125 243.56640625 C-133.02464829 230.03284997 -145.92940597 218.15835495 -160.1875 209 C-166.58276371 204.79951189 -172.86077505 199.60885064 -175.55859375 192.16015625 C-177.67210379 181.81704962 -175.84088561 173.19512135 -171 164 C-170.33097656 162.70449219 -170.33097656 162.70449219 -169.6484375 161.3828125 C-163.37485464 150.1324209 -153.98725588 140.16815822 -142 135 C-134.12224438 133.34821253 -127.46373502 136.78296022 -121 141 C-115.96158196 144.567912 -111.13540169 148.41744716 -106.27929688 152.22705078 C-85.81948173 168.34569806 -85.81948173 168.34569806 -60.890625 173.4921875 C-54.10584815 172.63387236 -48.85885174 169.41637529 -43 166 C-42.24976563 165.67773438 -41.49953125 165.35546875 -40.7265625 165.0234375 C-38.85984992 164.12744804 -38.85984992 164.12744804 -38.09619141 162.19238281 C-36.89369509 159.78739018 -35.44580968 157.96934065 -33.734375 155.8984375 C-29.94018629 151.09180983 -27.05312397 146.05555355 -24.25 140.625 C-23.78207031 139.75617188 -23.31414063 138.88734375 -22.83203125 137.9921875 C-16.33753508 125.55513534 -13.46738007 112.50042425 -17.5625 98.75 C-22.71593245 85.19971608 -33.14243244 75.35132855 -46 69 C-53.51694164 65.6634931 -61.02481341 63.05511865 -69.125 61.5625 C-83.91272268 58.64874599 -96.0993188 50.24299745 -104.75390625 37.984375 C-110.67649332 28.55279434 -112.79844137 18.82455552 -110.5390625 7.73828125 C-109.875 6.0625 -109.875 6.0625 -108 3 C-107.62101562 2.35933594 -107.24203125 1.71867187 -106.8515625 1.05859375 C-100.16480892 -9.12614364 -88.06659852 -14.26612988 -76.625 -17.25 C-51.92491455 -21.94258964 -21.67363049 -11.43619662 0 0 Z " fill="#D9D9D9" transform="translate(2086,349)"/>
<path d="M0 0 C3.38583048 1.12861016 3.64960887 1.57580297 5.42578125 4.48046875 C5.8851709 5.22079346 6.34456055 5.96111816 6.81787109 6.72387695 C7.31109863 7.53687256 7.80432617 8.34986816 8.3125 9.1875 C9.39391227 10.93527897 10.47596887 12.6826594 11.55859375 14.4296875 C12.40526611 15.80398926 12.40526611 15.80398926 13.26904297 17.20605469 C16.09557672 21.76837518 18.98669973 26.28912943 21.875 30.8125 C23.06008838 32.67305445 24.24498275 34.5337325 25.4296875 36.39453125 C26.01975586 37.32088379 26.60982422 38.24723633 27.21777344 39.20166016 C29.56438896 42.88616799 31.90960788 46.57156349 34.25463867 50.25708008 C35.4186954 52.08645165 36.58292081 53.9157159 37.74731445 55.74487305 C41.27016859 61.279241 44.78834973 66.81654043 48.30249023 72.35644531 C50.04214754 75.0929849 51.79035873 77.82392272 53.5390625 80.5546875 C55.91041414 84.26386217 58.23003305 87.99999099 60.5234375 91.7578125 C61.66133681 93.5886172 62.79935312 95.41934919 63.9375 97.25 C64.44482666 98.10223145 64.95215332 98.95446289 65.47485352 99.83251953 C67.73529981 103.42893662 69.14389403 105.59938631 73.046875 107.42578125 C74.35140625 107.61527344 75.6559375 107.80476563 77 108 C77.95334229 108.15098145 78.90668457 108.30196289 79.88891602 108.45751953 C83.35862146 108.99306495 86.83306024 109.4695337 90.3125 109.9375 C98.27258693 111.03577755 106.21318665 112.15679064 114.125 113.5625 C121.24242428 114.81046844 128.38086156 115.6486798 135.5625 116.4375 C148.45328475 117.85506939 161.21489301 119.84345013 174 122 C176.24211767 122.37411667 178.48430406 122.74782174 180.7265625 123.12109375 C183.36328125 123.56054688 183.36328125 123.56054688 186 124 C184.28974534 127.66434951 182.24002076 129.9345589 179.3125 132.75 C176.35075549 135.6527624 173.44622035 138.53616317 170.75 141.6875 C167.35908332 145.64623528 163.81354413 149.4473971 160.25 153.25 C155.03454772 158.81714086 149.85466928 164.41297518 144.70703125 170.04296875 C140.32791788 174.83137494 135.91966677 179.59297075 131.51611328 184.35888672 C130.00905183 185.99020187 128.5024697 187.62195809 126.99609375 189.25390625 C126.50061035 189.78910889 126.00512695 190.32431152 125.49462891 190.87573242 C124.49950295 191.95717199 123.51084358 193.04459848 122.52880859 194.13793945 C119.5242291 197.46263024 116.42288098 200.47817099 112.97338867 203.34228516 C108.97972011 207.32885629 106.17471495 210.14315114 105.62866211 215.9465332 C105.73206879 217.42114705 105.86694729 218.89377388 106.02734375 220.36328125 C106.12657639 221.58669472 106.12657639 221.58669472 106.22781372 222.83482361 C106.45689247 225.55985524 106.72791266 228.27895035 107 231 C107.17635465 232.96759903 107.3507004 234.93537899 107.52319336 236.90332031 C108.09591981 243.294309 108.7325631 249.67820268 109.375 256.0625 C109.60221872 258.3542314 109.82926824 260.64597959 110.05615234 262.93774414 C111.24651265 274.8930672 112.51268046 286.83161551 113.96948242 298.75756836 C115.75465197 313.79077797 116.81150808 328.91010147 118 344 C114.30782936 343.40369265 111.39234952 342.36910491 108.0703125 340.6640625 C107.10738281 340.17550781 106.14445312 339.68695313 105.15234375 339.18359375 C104.15332031 338.66925781 103.15429688 338.15492188 102.125 337.625 C94.26634488 333.60302533 86.35684572 329.71728231 78.38671875 325.921875 C66.26995144 320.15034989 54.21534635 314.25565488 42.17016602 308.33642578 C38.6459412 306.60457748 35.12089061 304.87441907 31.59570312 303.14453125 C29.31766129 302.02613747 27.03966481 300.90765133 24.76171875 299.7890625 C23.72617355 299.28065826 22.69062836 298.77225403 21.623703 298.2484436 C20.63759537 297.76378632 19.65148773 297.27912903 18.63549805 296.77978516 C17.68983978 296.31936829 16.74418152 295.85895142 15.76986694 295.38458252 C13.91408681 294.45692759 12.07620834 293.49261829 10.25772095 292.49383545 C9.39383759 292.02584534 8.52995422 291.55785522 7.63989258 291.07568359 C6.88750809 290.65225677 6.1351236 290.22882996 5.35993958 289.79257202 C1.3568661 288.44816301 -1.83092861 289.5233068 -5.64372253 291.07798767 C-6.53239517 291.52525711 -7.42106781 291.97252655 -8.33666992 292.43334961 C-9.3560112 292.94155746 -10.37535248 293.44976532 -11.42558289 293.97337341 C-12.51619522 294.52743362 -13.60680756 295.08149384 -14.73046875 295.65234375 C-15.87550369 296.22650528 -17.02053864 296.80066681 -18.20027161 297.39222717 C-21.24946054 298.9216118 -24.2935721 300.46085383 -27.33685303 302.00195312 C-29.7655598 303.22972323 -32.19783787 304.45031017 -34.63033962 305.67053986 C-46.317263 311.5336926 -57.96602193 317.46017237 -69.51968384 323.58198547 C-76.34901524 327.1983467 -83.22890718 330.70754797 -90.14086914 334.16308594 C-92.12540731 335.15648962 -94.10661478 336.15635827 -96.08789062 337.15625 C-97.36178523 337.79465797 -98.63586587 338.43269489 -99.91015625 339.0703125 C-101.59830444 339.91746826 -101.59830444 339.91746826 -103.32055664 340.78173828 C-106 342 -106 342 -108 342 C-108.35580366 331.44210887 -107.39462637 320.99632549 -106.51843262 310.48493004 C-106.2448216 307.19953903 -105.97757317 303.91368279 -105.71191406 300.62763977 C-105.0510903 292.46794142 -104.3808606 284.30902331 -103.70849609 276.15026855 C-103.13934267 269.24270698 -102.57502475 262.3347858 -102.01745605 255.42627907 C-101.75628392 252.21400748 -101.48812031 249.00237014 -101.21972656 245.79069519 C-98.2733032 227.21560701 -98.2733032 227.21560701 -102.37890625 210.19140625 C-103.89636123 208.79864659 -103.89636123 208.79864659 -105.5625 207.5625 C-106.67749277 206.58919678 -107.79078321 205.61393991 -108.90234375 204.63671875 C-109.71034424 203.96068604 -109.71034424 203.96068604 -110.53466797 203.27099609 C-112.43173848 201.62551974 -114.02475033 199.80686768 -115.625 197.875 C-119.06027197 193.83646076 -122.82008779 190.16567496 -126.58984375 186.44140625 C-129.26854532 183.72797273 -131.74608118 180.89222977 -134.22265625 177.99609375 C-136.94855159 174.9347036 -139.89141358 172.10034836 -142.80859375 169.22265625 C-145.42101068 166.5729856 -147.83302621 163.78827197 -150.25390625 160.96484375 C-152.09615675 158.89179676 -154.02401662 156.94564198 -156 155 C-158.5792506 152.46027814 -161.02217389 149.87548686 -163.375 147.125 C-167.64569355 142.15078153 -172.32477379 137.59056416 -177 133 C-176.67 132.01 -176.34 131.02 -176 130 C-173.63696289 129.05200195 -173.63696289 129.05200195 -170.47265625 128.23828125 C-169.29993164 127.92777832 -168.12720703 127.61727539 -166.91894531 127.29736328 C-165.64631836 126.9723584 -164.37369141 126.64735352 -163.0625 126.3125 C-160.41087098 125.61511677 -157.76195567 124.90773085 -155.11328125 124.19921875 C-154.43828583 124.01967651 -153.76329041 123.84013428 -153.06784058 123.65515137 C-145.16406604 121.53722888 -137.36480914 119.08988956 -129.56665039 116.61450195 C-124.38101427 114.98238283 -119.24953189 113.50845901 -113.91577148 112.44433594 C-111.27989513 111.83298192 -108.81523961 110.82219107 -106.30078125 109.8359375 C-102.39945863 108.41847903 -98.39760082 107.36138003 -94.40234375 106.2421875 C-88.77611502 104.66453993 -83.17068564 103.01538582 -77.5625 101.375 C-74.5710183 100.5003798 -71.57948691 99.62603686 -68.58642578 98.75683594 C-67.00916956 98.29530165 -65.433997 97.82646195 -63.86279297 97.34472656 C-60.68918706 96.38394882 -58.37762421 96 -55 96 C-54.68095703 94.81664062 -54.68095703 94.81664062 -54.35546875 93.609375 C-52.54818275 88.79689008 -49.97373573 84.63508449 -47.3125 80.25 C-46.12628836 78.27031908 -44.94144757 76.28981626 -43.7578125 74.30859375 C-43.13938477 73.27460449 -42.52095703 72.24061523 -41.88378906 71.17529297 C-38.76504041 65.91836646 -35.72901055 60.61435934 -32.6875 55.3125 C-22.0126658 36.74521315 -11.05958068 18.34047129 0 0 Z " fill="#E6E6E6" transform="translate(1800,62)"/>
<path d="M0 0 C16.21220308 12.07617647 22.42030048 30.53156224 25.48046875 49.84765625 C26.51790477 57.95720906 26.72947115 66.06016573 26.91015625 74.2265625 C26.94486196 75.64881007 26.98004702 77.07104601 27.01567078 78.49327087 C27.09168671 81.53861151 27.16612547 84.58398403 27.23928833 87.62939453 C27.91373258 115.54792032 28.84029916 143.44701636 30.04296875 171.34765625 C30.30633058 177.46347219 30.56901225 183.57931485 30.828125 189.6953125 C30.85872261 190.41737885 30.88932022 191.13944519 30.92084503 191.88339233 C31.41077892 203.51568489 31.76133225 215.14481559 31.98046875 226.78515625 C32.34713342 245.91767347 33.25225003 265.02345873 34.15516567 284.13661766 C34.3253786 287.74079082 34.49495761 291.34499344 34.6640625 294.94921875 C34.71526969 296.03972219 34.71526969 296.03972219 34.76751137 297.15225601 C35.29721458 308.47336461 35.76842256 319.79596014 36.203125 331.12109375 C36.26227414 332.65877294 36.32142739 334.19645198 36.38058472 335.73413086 C36.4099304 336.49720299 36.43927608 337.26027512 36.46951103 338.04647064 C36.51360698 339.19280849 36.51360698 339.19280849 36.55859375 340.36230469 C36.58802629 341.12747658 36.61745884 341.89264847 36.64778328 342.68100739 C38.10316571 380.43530514 40.05982589 418.1431129 42.48046875 455.84765625 C42.52809608 456.59175247 42.57572342 457.33584869 42.62479401 458.10249329 C44.80722616 492.17917752 47.01991338 526.23678323 50.95678711 560.1652832 C53.22913116 579.92890018 54.50794455 601.7593169 43.41796875 619.41015625 C41.48046875 621.84765625 41.48046875 621.84765625 38.48046875 623.84765625 C34.5294284 624.29494384 32.13320163 624.16707872 28.54296875 622.41015625 C19.69090311 615.00332582 13.95647686 605.8604831 8.48046875 595.84765625 C7.97507568 594.96932129 7.46968262 594.09098633 6.94897461 593.18603516 C2.74964057 585.48480781 1.21648042 578.52022774 0.29296875 569.84765625 C0.00957784 567.47244496 -0.27562095 565.09744877 -0.5625 562.72265625 C-0.70075699 561.53598862 -0.83901398 560.34932098 -0.98146057 559.12669373 C-1.42558574 555.47304469 -1.964909 551.83982002 -2.53076744 548.20327663 C-4.39747264 536.19864431 -5.86163804 524.16029421 -7.26171875 512.09375 C-7.51421955 509.93844926 -7.76700359 507.78318169 -8.02005005 505.62794495 C-8.68183603 499.98477779 -9.33975875 494.34116697 -9.99682617 488.69744873 C-10.64912511 483.10075189 -11.30520127 477.50449809 -11.9609375 471.90820312 C-13.11935627 462.01807373 -14.27260197 452.12734941 -15.42384529 442.23638248 C-16.23019908 435.31426695 -17.04442658 428.39311649 -17.86279297 421.47241211 C-20.66063556 397.76810111 -23.22051749 374.04653557 -25.61577225 350.29827881 C-25.90210205 347.46011274 -26.18909859 344.62201478 -26.47628784 341.78393555 C-26.57399507 340.81834654 -26.67170229 339.85275753 -26.77237034 338.85790825 C-26.87061069 337.88708368 -26.96885103 336.91625912 -27.07006836 335.91601562 C-27.66243048 330.06143443 -28.25438781 324.20681356 -28.84465027 318.35202026 C-29.92268184 307.66937445 -31.02401761 296.98960639 -32.1558876 286.31253815 C-39.22389358 219.52831695 -44.06301637 152.51590526 -48.35720062 85.50165939 C-48.51730177 83.00739 -48.67899704 80.5132277 -48.84088135 78.01907349 C-52.40988685 22.76807256 -52.40988685 22.76807256 -40.51953125 8.84765625 C-29.16432436 -2.9499613 -14.84255659 -9.73395572 0 0 Z " fill="#DBDCDB" transform="translate(1220.51953125,146.15234375)"/>
<path d="M0 0 C16.36911877 15.67933419 22.34209468 38.67624866 22.86404419 60.79699707 C22.90926154 64.36517051 22.9000802 67.93170884 22.875 71.5 C22.8728952 72.243638 22.87079041 72.987276 22.86862183 73.75344849 C22.78402439 99.21042683 22.78402439 99.21042683 19.625 108.6875 C15.68853184 109.33972541 11.75066031 109.98307765 7.8125 110.625 C6.71228516 110.80740234 5.61207031 110.98980469 4.47851562 111.17773438 C3.38603516 111.35498047 2.29355469 111.53222656 1.16796875 111.71484375 C-0.3166687 111.95835571 -0.3166687 111.95835571 -1.83129883 112.20678711 C-11.92336276 113.57580357 -21.91516195 113.83666103 -32.0859375 113.8203125 C-33.5860699 113.82098829 -35.0862022 113.82196059 -36.58633423 113.82321167 C-39.71446791 113.82467662 -42.84257282 113.82257371 -45.97070312 113.81787109 C-49.94308461 113.81218451 -53.91539834 113.81545375 -57.88777733 113.82144356 C-60.9816436 113.82509036 -64.07549432 113.82389169 -67.16936111 113.82131577 C-68.63231032 113.82065732 -70.09526102 113.82143619 -71.55820847 113.82379532 C-79.53537262 113.83383792 -87.43593997 113.62258396 -95.38745117 112.93673706 C-99.89532902 112.56066614 -104.40668632 112.37226673 -108.92578125 112.1875 C-110.33950264 112.1265918 -110.33950264 112.1265918 -111.78178406 112.06445312 C-114.75027214 111.93673198 -117.71886812 111.81183043 -120.6875 111.6875 C-143.01070929 110.7474981 -143.01070929 110.7474981 -152.48046875 110.1875 C-153.7027417 110.1153125 -154.92501465 110.043125 -156.18432617 109.96875 C-158.98805697 109.72160807 -161.63314329 109.308664 -164.375 108.6875 C-163.8461721 101.74927791 -162.37902637 95.73691031 -160.0625 89.1875 C-159.71493652 88.20064209 -159.36737305 87.21378418 -159.00927734 86.19702148 C-150.90682693 63.92490779 -140.04438456 42.57505515 -124.375 24.6875 C-123.69566406 23.88699219 -123.01632812 23.08648437 -122.31640625 22.26171875 C-105.54280782 2.80696033 -82.40469644 -10.56680556 -56.7890625 -14.06640625 C-35.59129392 -15.59439186 -16.87417839 -14.42346564 0 0 Z " fill="#014309" transform="translate(1559.375,305.3125)"/>
</svg>
