<?xml version="1.0" standalone="no"?>
<!DOCTYPE svg PUBLIC "-//W3C//DTD SVG 20010904//EN"
 "http://www.w3.org/TR/2001/REC-SVG-20010904/DTD/svg10.dtd">
<svg version="1.0" xmlns="http://www.w3.org/2000/svg"
 width="2560.000000pt" height="1088.000000pt" viewBox="0 0 2560.000000 1088.000000"
 preserveAspectRatio="xMidYMid meet">

<g transform="translate(0.000000,1088.000000) scale(0.100000,-0.100000)"
fill="#000000" stroke="none">
<path d="M0 5440 l0 -5440 12800 0 12800 0 0 5440 0 5440 -12800 0 -12800 0 0
-5440z m18358 4283 l342 -538 577 -83 c318 -46 579 -85 581 -87 2 -2 -178
-200 -400 -441 -221 -240 -404 -444 -406 -453 -2 -15 110 -1176 123 -1263 3
-21 1 -38 -4 -38 -5 0 -268 127 -585 282 l-576 281 -541 -272 c-297 -150 -543
-270 -546 -267 -4 3 16 288 44 633 l50 627 -394 419 c-218 230 -393 420 -391
423 3 2 277 84 610 181 l604 176 279 479 c153 263 281 478 284 478 4 0 160
-242 349 -537z m-6185 -291 c68 -37 150 -129 192 -217 74 -154 100 -318 110
-705 49 -1904 153 -3963 236 -4700 14 -123 19 -212 15 -266 -11 -148 -66 -312
-118 -348 -82 -58 -197 44 -323 285 l-55 107 -25 183 c-121 898 -282 2363
-370 3364 -65 748 -135 1722 -135 1880 0 216 109 374 300 437 65 21 106 16
173 -20z m3049 -667 c91 -16 233 -62 309 -100 163 -83 365 -256 488 -419 125
-165 300 -593 381 -931 151 -627 6 -1119 -385 -1309 -61 -30 -86 -36 -195 -45
-303 -27 -783 -34 -1369 -22 -315 7 -576 9 -580 6 -14 -15 -5 -410 12 -519 35
-222 95 -414 184 -588 85 -167 198 -261 349 -289 78 -15 174 -6 255 24 60 21
89 44 298 232 128 115 249 219 269 232 71 44 165 66 259 61 83 -4 87 -6 114
-39 16 -19 45 -65 64 -104 93 -185 34 -407 -164 -617 -231 -245 -526 -415
-841 -484 -130 -29 -483 -26 -593 4 -220 60 -405 264 -554 608 -182 423 -283
1053 -283 1769 0 324 26 539 101 840 132 523 412 1027 711 1278 277 232 585
384 853 420 73 10 239 6 317 -8z m-4869 -494 c95 -59 124 -139 143 -401 58
-805 203 -1705 390 -2420 112 -428 278 -916 414 -1215 49 -110 81 -244 87
-376 8 -169 -17 -259 -94 -334 -35 -33 -42 -36 -78 -31 -71 12 -163 62 -231
128 -110 105 -178 226 -250 443 -24 72 -43 121 -44 110 -1 -36 -79 -254 -124
-348 -159 -331 -413 -556 -716 -634 -107 -27 -159 -26 -292 8 -362 91 -694
373 -950 807 -104 175 -278 508 -404 774 -401 845 -709 1688 -919 2514 -61
239 -63 253 -55 320 11 86 42 187 75 247 52 92 146 162 233 174 47 6 153 -20
207 -51 54 -32 128 -109 158 -165 15 -27 60 -184 112 -386 275 -1078 539
-1946 751 -2463 140 -341 314 -631 479 -798 119 -121 237 -192 371 -223 47
-11 58 -10 122 12 191 66 384 262 514 521 48 96 61 167 79 437 17 279 -2 607
-52 869 -12 58 -108 456 -214 885 -106 429 -198 809 -204 845 -48 293 -27 529
58 654 64 93 148 128 296 124 84 -3 106 -7 138 -27z m10075 -735 c310 -70 612
-221 786 -392 118 -115 275 -433 332 -671 24 -100 25 -112 14 -204 -49 -424
-287 -774 -720 -1062 -98 -65 -370 -207 -397 -207 -24 0 -23 -19 5 -82 63
-140 97 -265 112 -418 9 -80 8 -112 -5 -176 -71 -340 -362 -844 -743 -1285
-248 -287 -664 -526 -1043 -600 -126 -24 -167 -24 -291 1 -184 38 -431 145
-686 298 -167 101 -193 121 -243 188 -127 172 -168 359 -119 550 33 130 109
269 190 352 43 42 153 115 226 149 74 34 167 42 212 19 79 -41 112 -177 76
-318 -11 -42 -19 -107 -19 -153 0 -71 4 -89 33 -148 71 -144 234 -220 502
-234 110 -5 119 -4 209 26 294 99 539 307 732 623 96 157 192 378 240 554 19
71 21 87 10 152 -23 154 -90 304 -201 451 -77 101 -255 272 -355 340 -109 73
-134 98 -161 156 -43 90 -26 203 50 339 45 80 160 196 229 231 103 51 153 31
409 -161 101 -75 212 -151 248 -168 58 -28 75 -31 155 -31 79 0 97 4 148 29
80 39 157 120 228 239 95 162 132 303 110 422 -39 210 -237 374 -524 436 -127
27 -206 68 -288 149 -89 87 -132 174 -137 276 -3 56 0 81 18 122 42 96 157
179 312 222 92 25 188 21 346 -14z m-15633 -121 c856 -173 1504 -903 1796
-2020 92 -353 114 -512 105 -750 -15 -417 -109 -754 -281 -1004 -20 -29 -35
-54 -33 -55 2 -2 69 -22 150 -45 367 -104 796 -273 1083 -428 209 -113 341
-201 500 -333 412 -342 697 -261 785 225 13 74 55 169 87 197 59 54 128 55
203 3 103 -71 276 -342 299 -469 44 -238 9 -476 -93 -629 -96 -144 -268 -238
-491 -268 -102 -13 -171 -5 -408 47 -155 34 -160 36 -232 89 -40 30 -151 106
-247 169 -553 364 -1164 642 -1753 797 l-160 42 -172 -2 c-95 -1 -199 3 -234
9 -294 53 -384 241 -266 554 18 47 33 67 77 101 187 147 353 383 433 615 95
277 95 539 2 919 -148 600 -445 1030 -857 1239 -252 129 -575 180 -844 134
-222 -38 -506 -148 -731 -283 -99 -59 -261 -167 -268 -179 -12 -20 164 -417
330 -745 628 -1240 1582 -2581 2700 -3794 243 -263 256 -278 316 -361 77 -106
85 -120 103 -180 35 -117 9 -230 -68 -297 -55 -49 -94 -66 -134 -59 -51 8
-228 97 -297 149 -63 48 -405 403 -641 667 -888 991 -1754 2140 -2521 3345
-145 228 -361 580 -429 698 -21 37 -41 67 -44 67 -3 -1 -48 -56 -100 -123
-470 -605 -1020 -1173 -1182 -1222 -61 -18 -192 -21 -262 -5 -76 17 -165 68
-234 134 -88 84 -106 121 -106 221 -1 69 3 89 30 145 17 36 55 92 85 125 30
33 103 117 162 187 283 335 745 813 1057 1094 883 795 1668 1235 2328 1304
130 13 319 3 457 -25z m18935 -1681 c90 -22 223 -87 254 -124 37 -44 60 -131
53 -202 -14 -161 -183 -290 -492 -377 -694 -197 -1283 -531 -1737 -985 -117
-117 -218 -236 -218 -256 0 -14 555 -572 585 -588 17 -8 32 0 100 55 234 188
608 462 890 650 413 275 974 599 1104 637 158 46 340 -10 466 -145 68 -73 90
-127 90 -225 0 -72 -4 -87 -34 -147 -19 -38 -60 -96 -92 -131 -50 -55 -69 -67
-151 -101 -183 -75 -727 -362 -1193 -628 -319 -182 -585 -339 -585 -345 0 -4
20 -15 44 -25 79 -32 220 -133 288 -205 170 -180 195 -421 56 -535 -83 -68
-127 -82 -263 -81 -104 0 -131 4 -205 28 -151 50 -323 145 -488 268 l-93 70
-132 -128 c-758 -738 -1305 -1263 -1335 -1281 -71 -43 -152 -64 -267 -70
l-111 -6 -45 51 c-83 92 -91 203 -26 336 34 68 60 97 278 313 237 234 597 608
917 952 l161 173 -109 117 c-107 114 -349 399 -435 514 -84 111 -120 255 -112
447 6 151 28 234 97 375 172 350 660 791 1268 1144 326 189 700 365 907 427
182 55 415 66 565 28z"/>
<path d="M15022 7960 c-374 -53 -685 -307 -900 -736 -77 -155 -187 -463 -170
-480 8 -7 384 -31 697 -44 465 -19 860 -9 1053 26 l86 16 14 86 c20 131 17
464 -5 576 -24 119 -68 236 -118 312 -107 165 -258 243 -479 249 -63 2 -143 0
-178 -5z"/>
</g>
</svg>
